<svg width="92" height="57" viewBox="0 0 92 57" fill="none" xmlns="http://www.w3.org/2000/svg">
<path d="M8.75063 33.6643L28.5231 38.4342L29.3981 45.1886L3.99936 37.6992L3.41969 33.2247L8.75063 33.6643ZM26.8247 25.3243L8.93523 35.0893L3.87752 36.7587L3.29785 32.2843L25.9533 18.5984L26.8247 25.3243ZM53.3279 4.7359L43.0058 51.8873L37.6193 52.5851L47.9699 5.43002L53.3279 4.7359ZM83.6325 25.1225L63.5255 20.4539L62.6652 13.8134L88.6587 21.1968L89.2421 25.6998L83.6325 25.1225ZM65.2497 33.7632L83.5418 23.9751L88.7805 22.1373L89.3602 26.6118L66.11 40.4036L65.2497 33.7632Z" fill="#2D2D2D" fill-opacity="0.2"/>
</svg>
